<svg xmlns="http://www.w3.org/2000/svg" version="1.1" xmlns:xlink="http://www.w3.org/1999/xlink" xmlns:svgjs="http://svgjs.dev/svgjs" width="1000" height="1000" viewBox="0 0 1000 1000"><rect width="1000" height="1000" fill="#ffffff"></rect><g transform="matrix(0.7,0,0,0.7,150.4344277348997,227.70000000000005)"><svg viewBox="0 0 257 200" data-background-color="#ffffff" preserveAspectRatio="xMidYMid meet" height="778" width="1000" xmlns="http://www.w3.org/2000/svg" xmlns:xlink="http://www.w3.org/1999/xlink"><g id="tight-bounds" transform="matrix(1,0,0,1,-0.15949703981317498,0)"><svg viewBox="0 0 257.31899407962635 200" height="200" width="257.31899407962635"><g><svg viewBox="0 0 257.31899407962635 200" height="200" width="257.31899407962635"><g><svg viewBox="0 0 257.31899407962635 200" height="200" width="257.31899407962635"><g><svg viewBox="0 0 257.31899407962635 200" height="200" width="257.31899407962635"><g><svg viewBox="0 0 257.31899407962635 200" height="200" width="257.31899407962635"><g transform="matrix(1,0,0,1,0,0)"><svg width="257.31899407962635" viewBox="1.1999999999999993 -31.86 95.14 68.38" height="200" data-palette-color="#8dbdff"><svg></svg><svg></svg><g class="undefined-text-0" data-fill-palette-color="primary" id="text-0"><path d="M21.56-11.55v11.55h-20.36v-4.49l14.25-22.8h-9.69v6.93h-4.56v-11.5h19.94v4.57l-13.84 22.75h9.79v-7.01zM51.54 0h-5.3l-2.29-7.59h-10.55l-2.25 7.59h-5.3l9.94-31.86h5.81zM38.7-25.2l-3.96 13.14h7.86zM77.34-22.34v0c0 3.193-0.967 5.567-2.9 7.12-1.94 1.553-4.643 2.33-8.11 2.33v0h-5.49v12.89h-5.05v-31.86h10.49c3.5 0 6.22 0.8 8.16 2.4 1.933 1.607 2.9 3.98 2.9 7.12zM72.29-22.41v0c0-1.627-0.533-2.847-1.6-3.66-1.067-0.813-2.52-1.22-4.36-1.22v0h-5.49v9.83h5.49c1.84 0 3.293-0.407 4.36-1.22 1.067-0.813 1.6-2.057 1.6-3.73z" fill="#8dbdff" fill-rule="nonzero" stroke="none" stroke-width="1" stroke-linecap="butt" stroke-linejoin="miter" stroke-miterlimit="10" stroke-dasharray="" stroke-dashoffset="0" font-family="none" font-weight="none" font-size="none" text-anchor="none" style="mix-blend-mode: normal" data-fill-palette-color="primary" opacity="1"></path><path d="M19.09 31.42v4.54h-15.28v-4.54h5.03v-22.75h-5.03v-4.57h15.28v4.57h-5.2v22.75zM48.85 4.1v31.86h-5.86l-9.45-23.1v23.1h-5.05v-31.86h6.35l8.96 21.95v-21.95zM73.78 24.66l4.05 1.56c-0.387 1.56-0.907 2.977-1.56 4.25-0.653 1.267-1.447 2.347-2.38 3.24-0.933 0.9-2.023 1.593-3.27 2.08-1.247 0.487-2.677 0.73-4.29 0.73v0c-2.227 0-4.113-0.46-5.66-1.38-1.547-0.92-2.813-2.147-3.8-3.68-0.98-1.54-1.687-3.3-2.12-5.28-0.433-1.973-0.65-4.027-0.65-6.16v0c0-2.133 0.217-4.193 0.65-6.18 0.433-1.987 1.133-3.737 2.1-5.25 0.967-1.513 2.2-2.73 3.7-3.65 1.493-0.92 3.323-1.38 5.49-1.38v0c0.7 0 1.407 0.09 2.12 0.27 0.72 0.18 1.39 0.453 2.01 0.82 0.613 0.367 1.153 0.817 1.62 1.35 0.467 0.54 0.797 1.16 0.99 1.86v0-3.76h4.56v12.06h-4.56c0-0.993-0.123-1.973-0.37-2.94-0.24-0.967-0.63-1.827-1.17-2.58-0.54-0.747-1.217-1.357-2.03-1.83-0.813-0.473-1.773-0.71-2.88-0.71v0c-1.433 0-2.603 0.35-3.51 1.05-0.913 0.7-1.647 1.62-2.2 2.76-0.553 1.14-0.94 2.42-1.16 3.84-0.22 1.413-0.33 2.837-0.33 4.27v0c0 1.433 0.11 2.863 0.33 4.29 0.22 1.433 0.6 2.717 1.14 3.85 0.533 1.133 1.263 2.05 2.19 2.75 0.927 0.7 2.107 1.05 3.54 1.05v0c2.067 0 3.66-0.66 4.78-1.98 1.113-1.32 2.003-3.093 2.67-5.32zM96.34 29.81v6.15h-6.15v-6.15z" fill="#8dbdff" fill-rule="nonzero" stroke="none" stroke-width="1" stroke-linecap="butt" stroke-linejoin="miter" stroke-miterlimit="10" stroke-dasharray="" stroke-dashoffset="0" font-family="none" font-weight="none" font-size="none" text-anchor="none" style="mix-blend-mode: normal" data-fill-palette-color="primary" opacity="1"></path></g></svg></g></svg></g></svg></g></svg></g></svg></g><defs></defs></svg><rect width="257.31899407962635" height="200" fill="none" stroke="none" visibility="hidden"></rect></g></svg></g></svg>