<svg width="100" height="100" xmlns="http://www.w3.org/2000/svg" version="1.1">
 <g>
  <title>Layer 1</title>
  <rect x="-120.37756" y="-45.71437" stroke="null" id="svg_18" fill="#ffffff" height="825.71399" width="1000"/>
  <g y="-488.3733" x="-458.74527" id="svg_3" transform="matrix(0.119223 0 0 0.119223 102.749 110.937)">
   <svg y="-884.44038" x="-845.8785" id="svg_19" width="1000" height="778" preserveAspectRatio="xMidYMid meet" data-background-color="#ffffff" viewBox="0 0 257 200" xmlns:xlink="http://www.w3.org/1999/xlink" xmlns="http://www.w3.org/2000/svg">
    <g transform="matrix(1,0,0,1,-0.15949703981317498,0)" id="svg_1">
     <svg id="svg_20" width="257.31899" height="200" viewBox="0 0 257.31899407962635 200">
      <svg id="svg_21" width="257.31899" height="200" viewBox="0 0 257.31899407962635 200">
       <svg id="svg_22" width="257.31899" height="200" viewBox="0 0 257.31899407962635 200">
        <svg id="svg_23" width="257.31899" height="200" viewBox="0 0 257.31899407962635 200">
         <svg id="svg_24" width="257.31899" height="200" viewBox="0 0 257.31899407962635 200">
          <svg id="svg_25" data-palette-color="#8dbdff" height="200" viewBox="1.1999999999999993 -31.86 95.14 68.38" width="257.31899">
           <svg id="svg_26"/>
           <svg id="svg_27"/>
           <g id="svg_14" data-fill-palette-color="primary" class="undefined-text-0">
            <path id="svg_28" data-fill-palette-color="primary" text-anchor="none" font-size="none" font-weight="none" font-family="none" stroke-dashoffset="0" stroke-miterlimit="10" fill-rule="nonzero" fill="#8dbdff" d="m21.56,-11.55l0,11.55l-20.36,0l0,-4.49l14.25,-22.8l-9.69,0l0,6.93l-4.56,0l0,-11.5l19.94,0l0,4.57l-13.84,22.75l9.79,0l0,-7.01l4.47,0zm29.98,11.55l-5.3,0l-2.29,-7.59l-10.55,0l-2.25,7.59l-5.3,0l9.94,-31.86l5.81,0l9.94,31.86zm-12.84,-25.2l-3.96,13.14l7.86,0l-3.9,-13.14zm38.64,2.86l0,0c0,3.193 -0.967,5.567 -2.9,7.12c-1.94,1.553 -4.643,2.33 -8.11,2.33l0,0l-5.49,0l0,12.89l-5.05,0l0,-31.86l10.49,0c3.5,0 6.22,0.8 8.16,2.4c1.933,1.607 2.9,3.98 2.9,7.12zm-5.05,-0.07l0,0c0,-1.627 -0.533,-2.847 -1.6,-3.66c-1.067,-0.813 -2.52,-1.22 -4.36,-1.22l0,0l-5.49,0l0,9.83l5.49,0c1.84,0 3.293,-0.407 4.36,-1.22c1.067,-0.813 1.6,-2.057 1.6,-3.73z"/>
            <path id="svg_29" data-fill-palette-color="primary" text-anchor="none" font-size="none" font-weight="none" font-family="none" stroke-dashoffset="0" stroke-miterlimit="10" fill-rule="nonzero" fill="#8dbdff" d="m19.09,31.42l0,4.54l-15.28,0l0,-4.54l5.03,0l0,-22.75l-5.03,0l0,-4.57l15.28,0l0,4.57l-5.2,0l0,22.75l5.2,0zm29.76,-27.32l0,31.86l-5.86,0l-9.45,-23.1l0,23.1l-5.05,0l0,-31.86l6.35,0l8.96,21.95l0,-21.95l5.05,0zm24.93,20.56l4.05,1.56c-0.387,1.56 -0.907,2.977 -1.56,4.25c-0.653,1.267 -1.447,2.347 -2.38,3.24c-0.933,0.9 -2.023,1.593 -3.27,2.08c-1.247,0.487 -2.677,0.73 -4.29,0.73l0,0c-2.227,0 -4.113,-0.46 -5.66,-1.38c-1.547,-0.92 -2.813,-2.147 -3.8,-3.68c-0.98,-1.54 -1.687,-3.3 -2.12,-5.28c-0.433,-1.973 -0.65,-4.027 -0.65,-6.16l0,0c0,-2.133 0.217,-4.193 0.65,-6.18c0.433,-1.987 1.133,-3.737 2.1,-5.25c0.967,-1.513 2.2,-2.73 3.7,-3.65c1.493,-0.92 3.323,-1.38 5.49,-1.38l0,0c0.7,0 1.407,0.09 2.12,0.27c0.72,0.18 1.39,0.453 2.01,0.82c0.613,0.367 1.153,0.817 1.62,1.35c0.467,0.54 0.797,1.16 0.99,1.86l0,0l0,-3.76l4.56,0l0,12.06l-4.56,0c0,-0.993 -0.123,-1.973 -0.37,-2.94c-0.24,-0.967 -0.63,-1.827 -1.17,-2.58c-0.54,-0.747 -1.217,-1.357 -2.03,-1.83c-0.813,-0.473 -1.773,-0.71 -2.88,-0.71l0,0c-1.433,0 -2.603,0.35 -3.51,1.05c-0.913,0.7 -1.647,1.62 -2.2,2.76c-0.553,1.14 -0.94,2.42 -1.16,3.84c-0.22,1.413 -0.33,2.837 -0.33,4.27l0,0c0,1.433 0.11,2.863 0.33,4.29c0.22,1.433 0.6,2.717 1.14,3.85c0.533,1.133 1.263,2.05 2.19,2.75c0.927,0.7 2.107,1.05 3.54,1.05l0,0c2.067,0 3.66,-0.66 4.78,-1.98c1.113,-1.32 2.003,-3.093 2.67,-5.32zm22.56,5.15l0,6.15l-6.15,0l0,-6.15l6.15,0z"/>
           </g>
          </svg>
         </svg>
        </svg>
       </svg>
      </svg>

     </svg>
     <rect id="svg_30" visibility="hidden" fill="none" height="200" width="257.31899"/>
    </g>
   </svg>
  </g>
 </g>
</svg>